<?xml version="1.0" standalone="no"?>
<!DOCTYPE svg PUBLIC "-//W3C//DTD SVG 20010904//EN"
 "http://www.w3.org/TR/2001/REC-SVG-20010904/DTD/svg10.dtd">
<svg version="1.0" xmlns="http://www.w3.org/2000/svg"
 width="300.000000pt" height="300.000000pt" viewBox="0 0 300.000000 300.000000"
 preserveAspectRatio="xMidYMid meet">
<metadata>
Created by potrace 1.10, written by Peter Selinger 2001-2011
</metadata>
<g transform="translate(0.000000,300.000000) scale(0.100000,-0.100000)"
fill="#ffffff" stroke="none">
<path d="M1410 2944 c-187 -21 -326 -55 -457 -112 -418 -180 -723 -535 -833
-967 -125 -493 11 -1001 364 -1360 228 -231 477 -362 791 -417 101 -17 147
-19 285 -15 181 6 258 19 420 73 240 80 481 245 635 436 36 44 65 84 65 88 0
4 -53 57 -117 117 -169 157 -648 597 -758 696 -29 26 -34 27 -140 27 l-110 0
35 -31 c19 -17 123 -111 230 -209 107 -97 215 -195 239 -217 l44 -39 -54 -53
c-289 -285 -747 -294 -1052 -21 -197 177 -289 469 -231 733 26 118 101 261
184 350 72 77 171 151 245 182 124 52 165 60 320 60 138 0 156 -2 230 -28 151
-51 296 -155 387 -276 l26 -35 51 35 c28 19 51 38 51 43 0 12 -101 135 -137
166 -236 207 -545 282 -848 204 -82 -21 -214 -84 -288 -138 -260 -187 -402
-506 -366 -826 51 -459 430 -800 888 -800 247 0 448 80 624 249 l67 64 23 -20
c12 -11 39 -35 60 -53 l38 -34 -53 -54 c-326 -331 -839 -409 -1254 -188 -251
134 -439 365 -518 638 -74 258 -49 527 74 773 321 644 1198 780 1695 263 44
-45 92 -98 106 -117 l25 -34 47 31 c25 18 48 36 51 41 9 14 -84 129 -165 206
-90 86 -185 150 -310 209 -396 190 -882 139 -1229 -129 -459 -355 -600 -975
-337 -1489 114 -223 282 -393 507 -514 303 -163 683 -181 1013 -46 126 51 326
188 405 279 17 19 35 35 39 35 4 0 26 -17 47 -37 l39 -36 -74 -71 c-193 -185
-406 -297 -669 -353 -126 -26 -382 -24 -511 5 -255 56 -459 165 -645 345 -483
465 -529 1225 -107 1752 184 230 426 382 728 457 78 20 116 22 290 22 185 0
208 -1 301 -26 249 -66 431 -166 602 -332 57 -55 141 -151 178 -205 4 -4 104
69 104 76 0 19 -117 157 -197 233 -262 248 -578 379 -946 394 -62 2 -128 2
-147 0z"/>
<path d="M2320 1457 c36 -34 142 -134 235 -222 93 -88 197 -186 231 -217 l60
-58 30 61 29 61 -45 41 c-25 22 -72 65 -105 96 -57 53 -268 246 -309 284 -16
13 -38 17 -105 17 l-86 0 65 -63z"/>
<path d="M1920 1506 c0 -4 169 -163 400 -376 140 -129 233 -215 333 -310 38
-36 72 -66 76 -68 4 -1 25 25 46 59 l38 62 -39 36 c-22 20 -89 81 -149 137
-61 55 -200 182 -309 282 l-199 182 -98 0 c-55 0 -99 -2 -99 -4z"/>
</g>
</svg>
